<?xml version="1.0" standalone="no"?>
<!DOCTYPE svg PUBLIC "-//W3C//DTD SVG 20010904//EN"
 "http://www.w3.org/TR/2001/REC-SVG-20010904/DTD/svg10.dtd">
<svg version="1.0" xmlns="http://www.w3.org/2000/svg"
 width="776.000000pt" height="776.000000pt" viewBox="0 0 776.000000 776.000000"
 preserveAspectRatio="xMidYMid meet">

<g transform="translate(0.000000,776.000000) scale(0.100000,-0.100000)"
fill="#000000" stroke="none">
<path d="M3625 7739 c-550 -67 -1076 -337 -1428 -734 -318 -359 -501 -762
-568 -1245 -18 -127 -15 -453 5 -585 76 -499 293 -932 641 -1280 416 -416 936
-642 1520 -662 379 -13 736 62 1070 226 694 341 1156 991 1255 1766 16 123 13
420 -5 562 -126 978 -881 1760 -1865 1933 -143 25 -487 36 -625 19z m461 -974
c456 -73 849 -402 1008 -843 50 -141 70 -262 69 -437 0 -224 -37 -385 -133
-575 -172 -341 -467 -577 -850 -677 -129 -34 -379 -43 -520 -19 -472 81 -867
420 -1014 871 -43 132 -58 222 -61 375 -9 365 118 685 374 940 191 191 404
306 664 359 121 24 331 27 463 6z"/>
<path d="M3620 2573 c-1503 -97 -2949 -898 -3456 -1913 -96 -193 -164 -445
-164 -609 l0 -51 480 0 479 0 6 38 c30 197 72 311 166 452 389 581 1336 1024
2369 1108 158 13 583 14 775 2 1057 -69 1888 -420 2286 -965 130 -178 218
-412 219 -577 l0 -58 485 0 485 0 0 48 c0 65 -25 222 -50 312 -92 333 -279
630 -594 946 -188 188 -317 294 -536 443 -783 532 -1801 842 -2724 829 -100
-1 -201 -4 -226 -5z"/>
</g>
</svg>
