<?xml version="1.0" standalone="no"?>
<!DOCTYPE svg PUBLIC "-//W3C//DTD SVG 20010904//EN"
 "http://www.w3.org/TR/2001/REC-SVG-20010904/DTD/svg10.dtd">
<svg version="1.0" xmlns="http://www.w3.org/2000/svg"
 width="862.000000pt" height="194.000000pt" viewBox="0 0 862.000000 194.000000"
 preserveAspectRatio="xMidYMid meet">

<g transform="translate(0.000000,194.000000) scale(0.100000,-0.100000)"
fill="#FFFFFF" stroke="none">
<path d="M1843 1629 c-63 -31 -105 -91 -213 -302 -148 -288 -185 -389 -199
-539 l-6 -72 -45 -3 c-119 -8 -279 -53 -665 -187 -251 -86 -384 -107 -473 -71
-47 19 -92 66 -92 96 0 53 37 87 113 103 35 8 44 31 23 55 -16 17 -22 18 -65
6 -64 -17 -86 -30 -116 -69 -33 -44 -41 -91 -21 -136 44 -105 177 -161 328
-140 110 16 208 43 460 130 251 87 393 127 487 136 l59 7 12 -59 c31 -158 83
-248 165 -285 55 -25 166 -25 221 0 48 22 137 100 209 183 l50 58 35 -34 c77
-75 228 -84 397 -25 61 22 108 47 152 81 57 45 65 49 79 35 14 -15 9 -23 -51
-86 -127 -135 -150 -239 -62 -287 31 -16 41 -17 91 -6 101 21 160 79 182 180
7 29 5 53 -9 98 -10 32 -19 60 -19 62 0 9 125 59 194 77 82 22 104 39 92 70
-9 24 -70 15 -185 -26 -150 -54 -159 -55 -178 -36 -16 15 -16 20 -3 40 55 87
64 150 28 192 -46 51 -130 48 -170 -6 -33 -44 -34 -101 -4 -155 25 -45 26 -48
9 -67 -33 -37 -136 -97 -202 -118 -86 -26 -204 -28 -256 -4 -37 18 -75 66 -75
95 0 11 27 25 86 44 70 23 95 37 134 74 57 55 71 93 45 122 -61 67 -245 -11
-315 -133 -16 -29 -30 -60 -30 -71 0 -57 -156 -243 -239 -286 -53 -26 -125
-28 -175 -5 -56 27 -111 129 -130 243 -5 29 0 39 49 90 94 98 174 212 235 338
138 284 198 536 140 594 -25 25 -25 25 -77 -1z m23 -121 c-17 -170 -142 -461
-278 -648 -81 -112 -83 -114 -86 -82 -4 41 35 179 81 289 78 185 258 503 284
503 3 0 3 -28 -1 -62z m901 -684 c5 -15 -23 -90 -38 -100 -5 -2 -15 9 -24 27
-14 26 -14 36 -5 60 14 32 56 41 67 13z m-457 -13 c0 -16 -76 -71 -120 -86
-54 -19 -53 -19 -34 11 30 44 154 105 154 75z m504 -317 c3 -9 6 -40 6 -69 0
-46 -5 -60 -30 -89 -32 -36 -110 -73 -129 -61 -20 12 -12 71 15 111 34 50 105
124 120 124 7 0 15 -7 18 -16z"/>
<path d="M3732 1538 c-69 -34 -243 -383 -340 -683 -37 -116 -37 -230 0 -302
15 -28 44 -64 65 -80 31 -24 47 -28 112 -31 89 -4 165 19 235 73 l44 33 -5
-62 c-7 -81 12 -107 83 -113 82 -8 184 42 313 152 l54 46 33 -37 c33 -35 35
-36 94 -32 70 5 116 36 165 110 l31 46 33 -39 c43 -52 68 -67 124 -78 55 -10
125 1 179 28 21 10 38 17 38 16 0 -2 -12 -47 -26 -100 -29 -109 -26 -145 10
-145 19 0 43 26 115 124 104 142 142 178 180 174 23 -3 30 -13 59 -97 18 -52
44 -110 58 -129 47 -60 124 -76 231 -48 72 19 112 46 182 122 l60 65 36 -39
c99 -111 381 -85 554 50 58 46 65 49 79 34 14 -14 10 -22 -51 -85 -95 -98
-134 -189 -106 -244 29 -56 76 -69 165 -42 61 18 109 61 135 120 24 55 26 105
5 164 -9 24 -16 45 -16 47 0 10 108 56 172 73 222 57 273 64 442 58 114 -4
213 -15 341 -37 380 -67 619 -37 749 93 56 57 74 111 57 177 -20 74 -70 112
-101 75 -10 -12 -9 -22 4 -49 46 -97 -7 -180 -150 -232 -76 -29 -346 -26 -519
5 -336 60 -505 62 -729 7 -82 -20 -183 -50 -223 -66 -84 -34 -105 -36 -123
-15 -10 13 -7 26 19 74 18 34 31 74 31 94 0 46 -34 85 -82 96 -108 25 -177
-112 -107 -210 l23 -32 -40 -34 c-93 -81 -209 -125 -330 -125 -91 0 -140 22
-171 78 -12 21 -19 42 -15 45 4 4 44 19 89 33 133 44 226 148 176 197 -34 35
-84 35 -155 2 -92 -43 -134 -85 -179 -175 -86 -178 -189 -270 -299 -270 -81 0
-100 20 -146 156 -32 93 -47 113 -94 127 -60 18 -116 -7 -184 -84 l-55 -61 18
71 c20 75 15 93 -22 93 -10 0 -41 -19 -68 -42 -96 -81 -213 -94 -271 -29 -15
17 -30 43 -34 58 -22 104 -35 133 -64 148 -65 33 -176 7 -240 -57 -23 -23 -50
-58 -60 -78 -22 -44 -143 -157 -230 -215 -69 -46 -138 -72 -164 -62 -22 9 -20
55 5 102 51 96 60 118 57 143 -2 21 -9 28 -31 30 -23 3 -41 -10 -110 -77 -122
-119 -247 -167 -326 -126 -36 18 -84 106 -73 133 3 9 27 48 53 87 117 177 198
346 267 555 67 204 54 292 -36 248z m-22 -194 c-24 -88 -91 -257 -146 -366
-51 -102 -107 -194 -111 -181 -5 14 74 234 126 353 46 104 142 283 148 276 3
-2 -5 -39 -17 -82z m2844 -520 c7 -19 -30 -108 -42 -100 -21 12 -33 62 -23 89
12 31 55 38 65 11z m-454 -13 c0 -23 -152 -113 -166 -98 -9 9 33 51 79 77 52
30 87 38 87 21z m-1515 -33 c-14 -50 -69 -148 -98 -176 -44 -42 -79 -50 -106
-23 -25 25 -26 47 -4 92 43 89 95 128 171 129 40 0 43 -2 37 -22z m2022 -305
c13 -54 1 -109 -32 -143 -31 -32 -107 -66 -124 -55 -20 12 -12 71 15 111 33
50 105 124 120 124 6 0 16 -17 21 -37z"/>
</g>
</svg>
